<svg xmlns="http://www.w3.org/2000/svg" xmlns:xlink="http://www.w3.org/1999/xlink" viewBox="0 0 46.728972 46.728972"><defs/><defs><linearGradient id="a"><stop offset="0" stop-color="#1fb3e0"/><stop offset="1" stop-color="#155884"/></linearGradient><linearGradient id="b" x1="148.26947" x2="-65.730522" y1="145.12643" y2="-68.873566" gradientTransform="translate(14.352896 15.03921) scale(.21836)" gradientUnits="userSpaceOnUse" xlink:href="#a"/></defs><path fill="url(#b)" d="M0 0h46.728973v46.728973H0z"/><path fill="#fff" d="M18.577823 16.316054c.356363.150668 2.846537 1.203598 3.166652 1.342693.02053.0087.04433.01856.06027.0028a1.24334 1.24334 0 01.766005-.27295c.124247 0 .248494.01791.372522.05306.01725.005.03821.0098.05306-.000437a.09127435.09127435 0 00.02424-.02839l2.451743-3.797275-.747009-.74679c-.477552-.477771-.716219-.716438-.992444-.803782a1.1856931 1.1856931 0 00-.715128 0c-.276225.08734-.514893.326011-.992445.803564zm-.349594 7.358721l-2.85134-4.158005 2.663114-2.663115c.248494.108743 1.149009.489344 1.958905.831732l.000655.000219.01594.0066c.617085.26094 1.179143.498516 1.355141.574505.01769.0076.03406.01463.04171.03232.0048.0107.0024.02467 0 .03603-.0179.08516-.02686.170321-.02686.255481 0 .313128.122718.606167.337147.828238.01747.01747 0 .0428-.01572.06529l-.0083.01245-2.703293 4.187921c-.0072.01114-.01419.02184-.02533.02904-.01441.0094-.0345.0052-.0511.0011-.105468-.02664-.21836-.04411-.322517-.04411-.09673 0-.202638.01812-.308979.03734h-.000874c-.01157.0022-.02227.0041-.03188-.0028a.12446502.12446502 0 01-.02664-.03013zm10.533671-3.549a1.0197397 1.0197397 0 00-.29413-.226221c-.0028-.0015-.0055-.0024-.0081-.0035a.03624771.03624771 0 01-.01376-.0076.06485282.06485282 0 01-.01638-.05525l.4579-2.802428 2.149751 2.149969-2.235348.950957a.04913093.04913093 0 01-.01943.0041c-.0046 0-.007 0-.0092-.000874-.0028-.0011-.0055-.0035-.01092-.0087zm.463578.601363l2.359813-.998341 2.298454 2.298236c.477334.477334.71622.716438.803564.992444.01288.04083.02358.0821.03188.12381l-5.492401-2.32553-.0085-.0037c-.02227-.009-.04782-.01943-.04782-.04192 0-.02227.02598-.03297.04782-.04193zm5.399816 3.153768l-5.722115-2.42008c-.019-.0079-.04236-.01725-.06092-.0083-.0063.0031-.01005.0081-.01419.01354l-.002.0024c-.163333.216612-.405494.354397-.687396.394357-.02729 0-.03232.03472-.03625.0642l-.002.01267-.630623 3.869552-.0015.0081c-.0035.01987-.0074.04127.0063.05481.224692.171631.357673.424055.388244.707049 0 .02708.0321.03232.06136.03712l.0026.000437.01507.0028 3.351384.697877 2.590401-2.590401c.391737-.391737.62298-.623198.741549-.846144zm-6.928771 3.416674l3.000481.615993-4.260634 4.260634.729976-4.482706.000655-.0061c.000874-.0057.0015-.01135.0037-.01659.0057-.01441.02118-.02053.03603-.02642l.007-.0028a1.0966023 1.0966023 0 00.412263-.306577c.01441-.0166.03144-.03232.05328-.03603a.05109617.05109617 0 01.01725.000655zm-2.16176 5.778453c.170539-1.04638.80662-4.922701.880644-5.373395.0013-.0085.005-.01769.0085-.02664.0076-.01965.01507-.03843-.0015-.04651-.299371-.118569-.520788-.381474-.60704-.685431a.12446502.12446502 0 01-.0026-.01157c-.0017-.0094-.0033-.01769-.01092-.02511a.09848022.09848022 0 00-.0452-.01987l-5.88261-1.212988c-.01376-.0028-.03057-.0057-.04324.000873-.01419.0076-.02205.02118-.03035.03516l-.0011.002-.01223.02053c-.01507.0262-.02882.04979-.0452.07315l-.0052.0072c-.0061.0076-.01266.01572-.01354.02533-.0011.01332.0074.02467.01572.03559l.0061.0083 5.309415 7.673814zm-6.338764-6.739454L24.5314 34.07874c-.353743.350467-.562495.535636-.798541.610315a1.1856931 1.1856931 0 01-.715128 0c-.276225-.08734-.514893-.326011-.992445-.803563l-5.331907-5.332125 1.39248-2.160232a.0925845.0925845 0 01.02336-.02773c.01529-.0107.03668-.0055.05437 0a1.392043 1.392043 0 00.422963.06223c.186042 0 .362913-.03712.548301-.111581.01572-.0063.03188-.01005.04455.0011a.11070836.11070836 0 01.01659.01943zm-3.016857 1.702769l1.334833-2.070705c.0066-.01026.01157-.02009.0048-.03013l-.0046-.0057-.0031-.0037a1.6639008 1.6639008 0 01-.06922-.09608l-.0081-.0131c-.01092-.01878-.02271-.03865-.04258-.03865a.05022273.05022273 0 00-.01965.0039l-2.41615 1.03044zm.806839-2.853961l-2.571403 1.089397-1.547734-1.547734c-.263123-.263123-.45397-.45397-.586732-.618394l4.704996.975849.01769.0031c.02926.0048.06136.01005.06136.03712 0 .02948-.03494.04323-.06442.05503l-.0044.0017zm-4.976199-1.872434l5.305922 1.112106.0013.000218c.0087.0017.01703.0035.02489-.0013a.09607826.09607826 0 00.02926-.03647c.06114-.113547.147829-.217705.234518-.313128.01791-.01769.000218-.04149-.01572-.06311l-.0044-.0059-.0035-.005c-.251769-.360512-2.407852-3.475194-2.7343-3.954494l-1.980959 1.981178c-.477552.477552-.71622.716219-.803563.992444a1.1856931 1.1856931 0 00-.0535.293476zm11.572408-5.43934l2.410473-3.737444 2.26439 2.26439-.545244 3.377806-.0011.0092a.07773605.07773605 0 01-.0044.02227c-.0055.01201-.01703.01463-.02948.01747a.16005765.16005765 0 00-.01288.0033 1.083064 1.083064 0 00-.312254.158529c-.0044.0031-.0079.0068-.01136.01048-.0068.0072-.01332.01398-.02402.01463a.06681806.06681806 0 01-.02511-.0039l-3.449865-1.46563-.0068-.0028c-.02184-.009-.04804-.01965-.04804-.04214a1.3044807 1.3044807 0 00-.17578-.530177l-.0076-.01223c-.01681-.02708-.03494-.05612-.02096-.08363zm.0797 1.365403c-.01878-.0081-.04236-.01441-.05852-.002-.0085.0066-.01376.01463-.01987.02358a1.2031618 1.2031618 0 01-1.00249.531924c-.0535 0-.106996-.0079-.167263-.01659l-.02686-.0037c-.02839 0-.04607.02773-.0618.05241l-.0046.0074-2.657656 4.114333-.0083.01201c-.0155.02249-.03341.04804-.01572.06551.01026.01005.02031.01005.03057.01005.0098 0 6.690104-2.848502 7.202158-3.066862l.007-.0031c.02118-.0087.04455-.01834.04455-.04062v-.09084c0-.05437.0081-.108743.01725-.155909a.06419775.06419775 0 000-.03341c-.0076-.01856-.02664-.02664-.04498-.0345zm-3.652939 5.606603c-.02337-.07905-.04738-.160494-.05044-.160931l7.281204-3.104856s.01026 0 .02031.01026c.03996.0393.07359.0666.105905.09106.0048.0035.01026.0066.01572.0098.01485.0087.03057.01769.03166.03363a.06943838.06943838 0 01-.0013.01507l-.624072 3.831121a.20591318.20591318 0 00-.0017.01223l-.000437.0031c-.0039.03013-.0085.06376-.03647.06376-.338457.01965-.638047.212027-.813826.502009l-.0028.0046c-.0081.01376-.01594.02686-.03013.03406-.01223.0059-.02817.0033-.04127.000655l-5.806184-1.197921c-.0026-.000437-.02402-.07293-.04607-.147612z" opacity=".65"/></svg>