<svg viewBox="0 0 160 100" xmlns="http://www.w3.org/2000/svg"><g><path fill="#8B8B8B" d="M0 0h160v100H0z"/><path fill="#fff" d="M35 24h90v54c0 3-2 5-5 5H40c-3 0-5-2-5-5V24z"/><path fill="#D8D8D8" d="M40 18h80c3 0 5 2 5 5v2H35v-2c0-3 2-5 5-5z"/><circle cx="40" cy="21" r="1" fill="#848484"/><circle cx="45" cy="21" r="1" fill="#848484"/><circle cx="50" cy="21" r="1" fill="#848484"/><path fill="#848484" d="M97 36c-4 0-7 3-7 7h1c0-4 3-6 6-6 4 0 6 3 6 6h1c0-4-3-7-7-7zm-34 0c4 0 7 3 7 7h-1c0-4-3-6-6-6-4 0-6 3-6 6h-1c0-4 3-7 7-7zm17 26c4 0 7-3 7-7h-1c0 3-3 6-6 6s-6-3-6-6h-1c0 4 3 7 7 7z"/></g></svg>