<svg xmlns="http://www.w3.org/2000/svg" viewBox="0 0 500 500"><g id="freepik--background-complete--inject-97"><path d="M95.6,324.51c0-1.92-.11-3.82-.13-5.7l.28.28c-4.54.05-9.09.16-13.63.17l-13.63.06.51-.51,0,11.52-.46-.46c2.24,0,4.48,0,6.74.06L82,330l13.75.29Zm-13.36,6.1-6.86.12c-2.29,0-4.59,0-6.89.06H68v-.46L68,318.81v-.52h.52l13.63.07c4.54,0,9.09.11,13.63.17H96v.28c0,1.95-.09,3.9-.13,5.82l-.15,5.7Z" style="fill:#ebebeb"></path><path d="M80.4,339c-.05-1.92-.12-3.81-.14-5.7l.28.28c-4.54.06-9.08.17-13.63.17l-13.63.07.52-.52-.06,11.52-.46-.46c2.25,0,4.49,0,6.74.06l6.77.12,13.75.28ZM67,345.14l-6.86.11c-2.29.05-4.59,0-6.89.06h-.46v-.47l0-11.52v-.51h.52l13.63.06c4.55,0,9.09.12,13.63.17h.29v.27c0,2-.09,3.9-.13,5.82l-.15,5.7Z" style="fill:#ebebeb"></path><path d="M110.81,339c0-1.92-.12-3.81-.14-5.7l.29.28c-4.55.06-9.09.17-13.63.17l-13.63.07.51-.52-.06,11.52-.45-.46c2.24,0,4.48,0,6.73.06l6.78.12,13.75.28Zm-13.37,6.11-6.85.11c-2.29.05-4.6,0-6.89.06h-.46v-.47l-.06-11.52v-.51h.52l13.63.06c4.54,0,9.08.12,13.63.17h.28v.27c0,2-.09,3.9-.14,5.82l-.14,5.7Z" style="fill:#ebebeb"></path><path d="M431.6,339c-.05-1.92-.12-3.81-.14-5.7l.28.28c-4.54.06-9.08.17-13.63.17l-13.63.07.52-.52-.06,11.52-.46-.46c2.25,0,4.49,0,6.74.06l6.78.12,13.74.28Zm-13.37,6.11-6.85.11c-2.3.05-4.6,0-6.9.06H404v-.47L404,333.33v-.51h.51l13.63.06c4.55,0,9.09.12,13.63.17H432v.27c0,2-.09,3.9-.14,5.82l-.15,5.7Z" style="fill:#ebebeb"></path><path d="M431.6,55c-.05-1.92-.12-3.81-.14-5.7l.28.28c-4.54.05-9.08.16-13.63.17l-13.63.06.52-.51-.06,11.52-.46-.46c2.25,0,4.49,0,6.74.06l6.78.11,13.74.29Zm-13.37,6.11-6.85.11c-2.3.05-4.6,0-6.9.06H404v-.46L404,49.34v-.52h.51l13.63.06c4.55,0,9.09.12,13.63.17H432v.28c0,1.95-.09,3.9-.14,5.82l-.15,5.7Z" style="fill:#ebebeb"></path><path d="M446.81,69.56c-.05-1.91-.12-3.81-.14-5.69l.28.28c-4.54,0-9.09.16-13.63.16l-13.63.07.51-.51-.05,11.51-.46-.45c2.25,0,4.49,0,6.74,0l6.77.12,13.75.28Zm-13.37,6.11-6.86.12c-2.29,0-4.59,0-6.89,0h-.46v-.47l-.05-11.51v-.52h.52l13.63.07c4.54,0,9.09.11,13.63.16h.29v.28c0,1.95-.09,3.89-.13,5.82L447,75.38Z" style="fill:#ebebeb"></path><path d="M80.4,55.05c-.05-1.92-.12-3.81-.14-5.7l.28.28c-4.54.06-9.08.17-13.63.17l-13.63.07.52-.52-.06,11.52-.46-.46c2.25,0,4.49,0,6.74.06l6.77.11,13.75.29ZM67,61.16l-6.86.11c-2.29,0-4.59,0-6.89.06h-.46v-.46l0-11.52v-.51h.52l13.63.06c4.55,0,9.09.12,13.63.17h.29v.28c0,2-.09,3.9-.13,5.82l-.15,5.7Z" style="fill:#ebebeb"></path><path d="M294.4,251.72c.05,1.91.12,3.81.14,5.7l-.28-.29c4.54-.05,9.09-.16,13.63-.16l13.63-.07-.52.52.06-11.52.46.45c-2.25,0-4.49,0-6.74,0l-6.77-.12-13.75-.28Zm13.37-6.11,6.86-.12c2.29,0,4.59,0,6.89-.05H322v.47l0,11.52v.51h-.52l-13.63-.07c-4.54,0-9.09-.11-13.63-.16H294v-.27c0-2,.09-3.9.13-5.83l.15-5.69Z" style="fill:#ebebeb"></path><path d="M309.61,237.19c.05,1.92.12,3.81.14,5.7l-.28-.28c4.54-.05,9.08-.16,13.63-.17l13.63-.06-.52.51.06-11.52.46.46c-2.25,0-4.49,0-6.74-.06l-6.78-.11-13.74-.29ZM323,231.08l6.85-.11c2.29-.05,4.6,0,6.9-.06h.45v.46l.06,11.52v.52h-.51l-13.63-.06c-4.55,0-9.09-.12-13.63-.17h-.29v-.28c0-1.95.09-3.9.14-5.82l.15-5.7Z" style="fill:#ebebeb"></path><polygon points="346.44 63.66 273.36 149.78 384.49 170.01 346.44 63.66" style="fill:#ebebeb"></polygon><polygon points="343.91 77.6 286.7 145.01 373.69 160.84 343.91 77.6" style="fill:#fff"></polygon><polygon points="335.53 98.59 344.35 100.2 337.84 132.56 330.22 131.18 335.53 98.59" style="fill:#ebebeb"></polygon><rect x="328.72" y="135.88" width="7.74" height="7.74" transform="translate(30.4 -57.3) rotate(10.32)" style="fill:#ebebeb"></rect><polygon points="143.21 260.58 115.51 328.24 187.95 318.4 143.21 260.58" style="fill:#ebebeb"></polygon><polygon points="144.44 269.67 122.76 322.63 179.46 314.93 144.44 269.67" style="fill:#fff"></polygon><polygon points="143.5 284.27 149.24 283.49 151.73 304.71 146.76 305.39 143.5 284.27" style="fill:#ebebeb"></polygon><rect x="147.44" y="307.68" width="5.01" height="5.01" transform="translate(-40.38 23) rotate(-7.73)" style="fill:#ebebeb"></rect></g><g id="freepik--Shadow--inject-97"><ellipse cx="250" cy="400.08" rx="172.13" ry="14.42" style="fill:#ebebeb"></ellipse></g><g id="freepik--Plant--inject-97"><path d="M408.16,342.52s8.18-29.33,14.7-39.29,18.69-20.91,18.69-20.91S441.27,327.55,408.16,342.52Z" style="fill:#FFC727"></path><path d="M408.75,342a140,140,0,0,0,7.45-14.21,98.28,98.28,0,0,1,4.06-15.42c0-.1.16-.05.14.05-1.08,4.63-2.34,9.22-3.49,13.84,3.3-7.13,6.43-14.36,10.36-21.11a45.58,45.58,0,0,1,3.79-9.39c.05-.08.19,0,.15.05a59.33,59.33,0,0,0-2.55,7,69.37,69.37,0,0,1,6.21-8.57c.14-.17.43,0,.28.19-5.25,6.71-8.88,14.34-12.33,22.06a118.07,118.07,0,0,0,10.26-12.82,0,0,0,0,1,.07,0,105.41,105.41,0,0,1-11,14.24c-2.52,5.66-5,11.34-8,16.72,6-5.06,10.6-11.62,15.16-17.94a.14.14,0,0,1,.23.15c-4.57,6.94-9.29,13.48-15.86,18.61a72.4,72.4,0,0,1-4.38,6.86A.35.35,0,0,1,408.75,342Z" style="fill:#263238"></path><path d="M405.63,345.17s14.69-27.05,10.42-53.27-8.83-35.56-8.83-35.56S384.13,297.12,405.63,345.17Z" style="fill:#FFC727"></path><path d="M399.6,302.65a127.76,127.76,0,0,0,5.67,21.83c0-9.62.23-19.24.48-28.86A74.44,74.44,0,0,1,403,277.69c0-.18.26-.16.27,0a102.76,102.76,0,0,0,2.58,15.42q.33-11.91.77-23.81c0-.13.21-.13.21,0,0,12.4,0,24.8-.08,37.21A100.26,100.26,0,0,0,411,291.78s.09,0,.09,0a57.7,57.7,0,0,1-4.34,16.76c-.06,7.93-.14,15.86-.32,23.78,2.49-8.43,5.14-16.59,5.86-25.49a.1.1,0,0,1,.19,0c-.2,9.82-2.73,19.79-6,29a.67.67,0,0,1-.16.23c-.08,2.89-.16,5.79-.26,8.69a.32.32,0,0,1-.64,0c-.12-5.93-.16-11.86-.15-17.78a79.84,79.84,0,0,1-5.79-24.35C399.47,302.59,399.59,302.57,399.6,302.65Z" style="fill:#263238"></path><path d="M400.61,298.46a50.87,50.87,0,0,1,1,7.15c0,.08-.12.09-.14,0a50.16,50.16,0,0,1-1.2-7.12C400.26,298.32,400.57,298.28,400.61,298.46Z" style="fill:#263238"></path><path d="M409.2,278.69c0-.08.13-.05.14,0a18.28,18.28,0,0,1-.74,4.93.1.1,0,0,1-.2-.06C408.72,282,408.92,280.32,409.2,278.69Z" style="fill:#263238"></path><path d="M400.27,347.24s.6-28.24-7.5-42.27-21.53-21.18-21.53-21.18S376.66,333.55,400.27,347.24Z" style="fill:#FFC727"></path><path d="M385.51,323.09a105.26,105.26,0,0,0,11,13.89c-1.61-5.77-3.49-11.44-5.6-17-4.54-4-9.05-8.11-11.83-13.56a.07.07,0,1,1,.13-.07c3,4.82,7,8.68,11.22,12.39a219.83,219.83,0,0,0-11.28-24.55.18.18,0,0,1,.31-.18,134.23,134.23,0,0,1,7.07,12.89c-.76-3-1.37-6.11-2.14-9.1,0-.09.09-.12.13,0a51.49,51.49,0,0,1,3.32,12A143.81,143.81,0,0,1,394.93,329c-.21-4.24-.47-8.45-.91-12.67,0-.08.13-.1.14,0a68.56,68.56,0,0,1,1.23,14.22q1.75,6.31,2.94,12.76a.09.09,0,0,1-.18,0c-.44-1.79-.92-3.58-1.41-5.36,0,0-.06,0-.09,0a57.5,57.5,0,0,1-11.18-14.86S385.5,323.06,385.51,323.09Z" style="fill:#263238"></path><path d="M376.13,300.12c.9,1,1.73,2,2.6,3a23.18,23.18,0,0,1,2.33,2.73s0,.08-.06.06a13.83,13.83,0,0,1-2.69-2.66,21.84,21.84,0,0,1-2.31-3C376,300.14,376.07,300.05,376.13,300.12Z" style="fill:#263238"></path><path d="M424.34,343.79l-1,9-3.08,27.36H393.41l-3.08-27.36-1-9h35Z" style="fill:#455a64"></path><path d="M424.34,343.79l-1,9h-33l-1-9h35Z" style="fill:#37474f"></path><rect x="386.93" y="337.23" width="39.79" height="10.25" transform="translate(813.64 684.71) rotate(180)" style="fill:#455a64"></rect></g><g id="freepik--Table--inject-97"><polygon points="452.73 380.13 402.05 380.37 351.36 380.46 250 380.63 148.64 380.46 97.95 380.37 47.27 380.13 97.95 379.88 148.64 379.8 250 379.63 351.36 379.8 402.05 379.89 452.73 380.13" style="fill:#263238"></polygon></g><g id="freepik--Text--inject-97"><path d="M169.6,434.65a4.69,4.69,0,0,1-1.94,3.93,6.77,6.77,0,0,1-2.11,1,9.21,9.21,0,0,1-2.56.35h-9.9v-20.5h11a4.06,4.06,0,0,1,1.94.46,5,5,0,0,1,1.47,1.2,5.82,5.82,0,0,1,.94,1.67,5.7,5.7,0,0,1,.33,1.89,5.59,5.59,0,0,1-.75,2.82,4.61,4.61,0,0,1-2.2,1.95,5.18,5.18,0,0,1,2.79,1.86A5.39,5.39,0,0,1,169.6,434.65Zm-12.53-11.81V428h5.32a2.35,2.35,0,0,0,1.71-.69,2.52,2.52,0,0,0,.71-1.91,2.64,2.64,0,0,0-.65-1.87,2.12,2.12,0,0,0-1.6-.7Zm8.52,11.06a2.91,2.91,0,0,0-.19-1,2.8,2.8,0,0,0-.5-.88,2.26,2.26,0,0,0-.75-.59,2.05,2.05,0,0,0-1-.22h-6.12v5.4H163a2.7,2.7,0,0,0,1-.2,2.37,2.37,0,0,0,.82-.57,2.71,2.71,0,0,0,.75-1.89Z" style="fill:#FFC727"></path><path d="M178.12,419.44h3.52l7.8,20.5h-4.1l-1.91-5.11h-7.16l-1.87,5.11h-4.1ZM182.71,432,179.88,424,176.94,432Z" style="fill:#FFC727"></path><path d="M191.69,439.94v-20.5h7.45a11.07,11.07,0,0,1,4.4.81,8.78,8.78,0,0,1,5.07,5.44,12.28,12.28,0,0,1,.64,4,12,12,0,0,1-.71,4.23,8.9,8.9,0,0,1-2,3.23,9.05,9.05,0,0,1-3.19,2.08,11.26,11.26,0,0,1-4.17.74Zm13.54-10.28a8.77,8.77,0,0,0-.4-2.72,6.3,6.3,0,0,0-1.18-2.13,5.31,5.31,0,0,0-1.93-1.39,6.42,6.42,0,0,0-2.58-.49h-3.46v13.51h3.46a6.17,6.17,0,0,0,2.61-.52,5.34,5.34,0,0,0,1.91-1.42,6.42,6.42,0,0,0,1.17-2.16A8.55,8.55,0,0,0,205.23,429.66Z" style="fill:#FFC727"></path><path d="M219.29,439.94v-20.5h9.07A5.88,5.88,0,0,1,231,420a6.65,6.65,0,0,1,2.07,1.56,7.36,7.36,0,0,1,1.35,2.19,6.55,6.55,0,0,1,.49,2.47,6.87,6.87,0,0,1-1,3.63,5.75,5.75,0,0,1-2.7,2.35l4.68,7.71h-4.48l-4.18-6.87h-3.93v6.87Zm4-10.37h5a2,2,0,0,0,1-.26,2.52,2.52,0,0,0,.82-.71,3.27,3.27,0,0,0,.55-1.05,4.21,4.21,0,0,0,.2-1.3,3.83,3.83,0,0,0-.23-1.33,3.43,3.43,0,0,0-.62-1.05,2.71,2.71,0,0,0-.9-.69,2.2,2.2,0,0,0-1-.25h-4.82Z" style="fill:#FFC727"></path><path d="M252.73,436.44v3.5H238.49v-20.5h14v3.49h-10v4.94h8.63v3.23h-8.63v5.34Z" style="fill:#FFC727"></path><path d="M269.36,438.61a10.22,10.22,0,0,1-2.43,1.08,9.56,9.56,0,0,1-2.77.39,9.25,9.25,0,0,1-4.08-.89,10.28,10.28,0,0,1-3.15-2.34,10.73,10.73,0,0,1-2.76-7.16,10.31,10.31,0,0,1,.77-3.93,10.89,10.89,0,0,1,2.1-3.32,10.22,10.22,0,0,1,3.19-2.3,9.63,9.63,0,0,1,4-.85,9.06,9.06,0,0,1,4.05.91,10.07,10.07,0,0,1,3.14,2.39,11,11,0,0,1,2,3.34,10.64,10.64,0,0,1,.72,3.82,10.31,10.31,0,0,1-.71,3.81,10.54,10.54,0,0,1-2,3.23l2.8,3.15h-3.76Zm-5.17-2.05a5.26,5.26,0,0,0,1.46-.19,5.53,5.53,0,0,0,1.25-.5l-3.11-3.53h3.75l1.42,1.59a8,8,0,0,0,.79-6.81,7.18,7.18,0,0,0-1.19-2.2,5.93,5.93,0,0,0-1.87-1.53,5.83,5.83,0,0,0-5.07,0,5.62,5.62,0,0,0-1.88,1.57,7.24,7.24,0,0,0-1.14,2.21,8.23,8.23,0,0,0,0,5.07,6.77,6.77,0,0,0,1.17,2.19,5.67,5.67,0,0,0,1.87,1.53A5.39,5.39,0,0,0,264.19,436.56Z" style="fill:#FFC727"></path><path d="M285.88,436.56a4.54,4.54,0,0,0,2.38-.58,4.66,4.66,0,0,0,1.56-1.5,6.22,6.22,0,0,0,.83-2.12,11.83,11.83,0,0,0,.25-2.47V419.44h4v10.45a14.87,14.87,0,0,1-.5,4,9.13,9.13,0,0,1-1.59,3.23,7.61,7.61,0,0,1-2.79,2.19,10.64,10.64,0,0,1-8.24,0A7.85,7.85,0,0,1,279,437a8.9,8.9,0,0,1-1.55-3.25,15.19,15.19,0,0,1-.48-3.84V419.44h4v10.45a12.7,12.7,0,0,0,.24,2.5,6.45,6.45,0,0,0,.84,2.12,4.6,4.6,0,0,0,1.55,1.49A4.55,4.55,0,0,0,285.88,436.56Z" style="fill:#FFC727"></path><path d="M313.1,436.44v3.5H298.87v-20.5h14v3.49h-10v4.94h8.63v3.23h-8.63v5.34Z" style="fill:#FFC727"></path><path d="M328,424.81a4.21,4.21,0,0,0-.74-.55,8.62,8.62,0,0,0-1.3-.68,10.77,10.77,0,0,0-1.66-.56,6.91,6.91,0,0,0-1.81-.23,4.13,4.13,0,0,0-2.46.6,2,2,0,0,0-.81,1.71,1.7,1.7,0,0,0,.31,1,2.64,2.64,0,0,0,.88.74,7.17,7.17,0,0,0,1.46.57c.58.18,1.26.36,2,.55q1.5.4,2.73.87a7.5,7.5,0,0,1,2.08,1.15,4.87,4.87,0,0,1,1.31,1.66,5.51,5.51,0,0,1,.46,2.39,5.86,5.86,0,0,1-.62,2.81,5.17,5.17,0,0,1-1.67,1.89,7.24,7.24,0,0,1-2.43,1.06,12.2,12.2,0,0,1-2.87.33,15.47,15.47,0,0,1-4.56-.69,14.19,14.19,0,0,1-4-2l1.76-3.43a5.36,5.36,0,0,0,.94.68,15.55,15.55,0,0,0,1.6.83,12,12,0,0,0,2.05.71,9.37,9.37,0,0,0,2.31.29c2.19,0,3.29-.7,3.29-2.11a1.75,1.75,0,0,0-.38-1.13,3.24,3.24,0,0,0-1.06-.8,10.23,10.23,0,0,0-1.68-.64l-2.19-.63a18,18,0,0,1-2.56-.89,6.58,6.58,0,0,1-1.8-1.12,4.08,4.08,0,0,1-1.09-1.5,5.24,5.24,0,0,1-.36-2,6.44,6.44,0,0,1,.58-2.77,5.57,5.57,0,0,1,1.6-2,7.37,7.37,0,0,1,2.38-1.23,9.86,9.86,0,0,1,2.92-.42,11.45,11.45,0,0,1,4,.68,14.9,14.9,0,0,1,3.17,1.6Z" style="fill:#FFC727"></path><path d="M348.67,422.93h-6.55v17h-4v-17h-6.55v-3.49h17.06Z" style="fill:#FFC727"></path></g><g id="freepik--400-error--inject-97"><path d="M121.79,258.36V227.73H56.45V203.26l75-88.43h20.36v88.22h19.69v24.68H151.77v30.63ZM86.43,203.05h38.71V156.58Z" style="fill:#FFC727"></path><path d="M306.16,172a69.32,69.32,0,0,1-4.36,25,60.5,60.5,0,0,1-12.08,19.74,54.32,54.32,0,0,1-18.35,13,59.39,59.39,0,0,1-46,0,54.47,54.47,0,0,1-18.24-13A60.33,60.33,0,0,1,195.07,197a73.61,73.61,0,0,1,0-50,60.54,60.54,0,0,1,12.08-19.74,56.54,56.54,0,0,1,82.57,0A60.71,60.71,0,0,1,301.8,147,69.41,69.41,0,0,1,306.16,172ZM276,172a53.77,53.77,0,0,0-2-15.11,36.67,36.67,0,0,0-5.7-11.83,26.27,26.27,0,0,0-8.73-7.61,23.29,23.29,0,0,0-11.08-2.67,23.77,23.77,0,0,0-11.3,2.67,26.34,26.34,0,0,0-8.72,7.61,36.69,36.69,0,0,0-5.71,11.83,53.78,53.78,0,0,0-2,15.11,52.72,52.72,0,0,0,2,15,36.9,36.9,0,0,0,5.71,11.72,26.23,26.23,0,0,0,8.72,7.61,23.77,23.77,0,0,0,11.3,2.67,23.29,23.29,0,0,0,11.08-2.67,26.16,26.16,0,0,0,8.73-7.61,36.89,36.89,0,0,0,5.7-11.72A52.71,52.71,0,0,0,276,172Z" style="fill:#FFC727"></path><path d="M443.55,172a69.32,69.32,0,0,1-4.36,25,60.35,60.35,0,0,1-12.09,19.74,54.18,54.18,0,0,1-18.34,13,59.42,59.42,0,0,1-46,0,54.43,54.43,0,0,1-18.23-13A60.35,60.35,0,0,1,332.45,197a73.77,73.77,0,0,1,0-50,60.56,60.56,0,0,1,12.09-19.74,56.52,56.52,0,0,1,82.56,0A60.56,60.56,0,0,1,439.19,147,69.41,69.41,0,0,1,443.55,172Zm-30.21,0a53.78,53.78,0,0,0-2-15.11,36.69,36.69,0,0,0-5.71-11.83,26.34,26.34,0,0,0-8.72-7.61,23.29,23.29,0,0,0-11.08-2.67,23.74,23.74,0,0,0-11.3,2.67,26.37,26.37,0,0,0-8.73,7.61,36.67,36.67,0,0,0-5.7,11.83,53.77,53.77,0,0,0-2,15.11,52.71,52.71,0,0,0,2,15,36.89,36.89,0,0,0,5.7,11.72,26.26,26.26,0,0,0,8.73,7.61,23.74,23.74,0,0,0,11.3,2.67,23.29,23.29,0,0,0,11.08-2.67,26.23,26.23,0,0,0,8.72-7.61A36.9,36.9,0,0,0,411.33,187,52.72,52.72,0,0,0,413.34,172Z" style="fill:#FFC727"></path><path d="M218,85v3.5H203.75V68h14v3.49h-10v4.94h8.63v3.23h-8.63V85Z" style="fill:#263238"></path><path d="M221.1,88.48V68h9.06a5.76,5.76,0,0,1,2.62.59,6.61,6.61,0,0,1,2.06,1.56,7.27,7.27,0,0,1,1.36,2.19,6.55,6.55,0,0,1,.49,2.47,6.73,6.73,0,0,1-1,3.62,5.73,5.73,0,0,1-2.7,2.36l4.68,7.71H233.2L229,81.6h-3.93v6.88Zm4-10.37h5a2.12,2.12,0,0,0,1-.26,2.66,2.66,0,0,0,.83-.71,3.47,3.47,0,0,0,.54-1,4,4,0,0,0,.21-1.3,3.83,3.83,0,0,0-.23-1.33,3.67,3.67,0,0,0-.63-1,2.85,2.85,0,0,0-.89-.7,2.39,2.39,0,0,0-1-.24h-4.82Z" style="fill:#263238"></path><path d="M240.3,88.48V68h9.06a5.76,5.76,0,0,1,2.62.59A6.61,6.61,0,0,1,254,70.13a7.27,7.27,0,0,1,1.36,2.19,6.55,6.55,0,0,1,.49,2.47,6.73,6.73,0,0,1-1,3.62,5.73,5.73,0,0,1-2.7,2.36l4.68,7.71H252.4l-4.19-6.88h-3.93v6.88Zm4-10.37h5a2.12,2.12,0,0,0,1-.26,2.66,2.66,0,0,0,.83-.71,3.47,3.47,0,0,0,.54-1,4,4,0,0,0,.21-1.3,3.83,3.83,0,0,0-.23-1.33,3.64,3.64,0,0,0-.62-1,2.88,2.88,0,0,0-.9-.7,2.39,2.39,0,0,0-1-.24h-4.82Z" style="fill:#263238"></path><path d="M268.25,88.62a9.29,9.29,0,0,1-4.09-.88A10.2,10.2,0,0,1,261,85.4a10.84,10.84,0,0,1-2.75-7.17A10.3,10.3,0,0,1,259,74.3,10.92,10.92,0,0,1,261.13,71a10.22,10.22,0,0,1,3.19-2.3,9.43,9.43,0,0,1,4-.85,8.94,8.94,0,0,1,4.06.91,10.15,10.15,0,0,1,3.13,2.38,10.86,10.86,0,0,1,2,3.35,10.46,10.46,0,0,1,0,7.73,11,11,0,0,1-2.08,3.29,10.16,10.16,0,0,1-3.18,2.28A9.43,9.43,0,0,1,268.25,88.62ZM262.3,78.23a8.16,8.16,0,0,0,.4,2.56,6.93,6.93,0,0,0,1.17,2.2,6,6,0,0,0,1.88,1.53,5.45,5.45,0,0,0,2.53.58,5.39,5.39,0,0,0,2.55-.59,5.86,5.86,0,0,0,1.88-1.58,7,7,0,0,0,1.15-2.21,8.19,8.19,0,0,0,.39-2.49,7.91,7.91,0,0,0-.42-2.57,7,7,0,0,0-1.18-2.2A5.65,5.65,0,0,0,270.77,72a5.37,5.37,0,0,0-2.49-.57,5.47,5.47,0,0,0-2.57.59,5.84,5.84,0,0,0-1.88,1.56,7.08,7.08,0,0,0-1.14,2.2A8.21,8.21,0,0,0,262.3,78.23Z" style="fill:#263238"></path><path d="M281.33,88.48V68h9.06a5.76,5.76,0,0,1,2.62.59,6.73,6.73,0,0,1,2.06,1.56,7.27,7.27,0,0,1,1.36,2.19,6.81,6.81,0,0,1-.51,6.09,5.73,5.73,0,0,1-2.7,2.36l4.68,7.71h-4.48l-4.18-6.88h-3.93v6.88Zm4-10.37h5a2.15,2.15,0,0,0,1-.26,2.52,2.52,0,0,0,.82-.71,3.28,3.28,0,0,0,.55-1,4,4,0,0,0,.21-1.3,3.61,3.61,0,0,0-.24-1.33,3.43,3.43,0,0,0-.62-1,2.85,2.85,0,0,0-.89-.7,2.39,2.39,0,0,0-1-.24h-4.82Z" style="fill:#263238"></path></g><g id="freepik--Character--inject-97"><ellipse cx="250" cy="171.64" rx="59.53" ry="63.15" style="fill:#FFC727"></ellipse><path d="M309.53,171.64c0,34.88-26.65,63.15-59.53,63.15-26.46,0-48.87-18.31-56.62-43.63,12.41,11,36.63,27.51,64.26,20.93,30.52-7.27,44.66-29.28,50.68-53.18A67.43,67.43,0,0,1,309.53,171.64Z" style="opacity:0.1"></path><path d="M282.65,126.69a18.87,18.87,0,0,0-3-2.42l2.69-.36c.21,0,.14-.34,0-.35a19.13,19.13,0,0,0-3.71.07,20.26,20.26,0,0,0-5.51-2.16,46.2,46.2,0,0,1,5.45-1.38c.19,0,.15-.35-.05-.34a22,22,0,0,0-6.44,1.48,23.09,23.09,0,0,0-4.07-.39c-.11,0-.1.16,0,.17a24.55,24.55,0,0,1,3.29.53,29,29,0,0,0-3.52,1.78,15.23,15.23,0,0,0-2.78.06c-.1,0-.1.16,0,.15a14.49,14.49,0,0,1,2.29.08,32,32,0,0,0-3.54,2.54c-.08.06,0,.17.1.11a26.94,26.94,0,0,1,4-2.59,22,22,0,0,1,4.86,1.27c-1.32.42-2.63.89-3.91,1.39-.09,0-.05.17,0,.13a31.8,31.8,0,0,1,4.61-1.25c1.41.55,2.81,1.17,4.24,1.76.21.09.35-.26.15-.36a32.1,32.1,0,0,0-3.28-1.61c1.33-.23,2.66-.41,4-.58a32.85,32.85,0,0,1,3.8,2.56C282.56,127.14,282.84,126.88,282.65,126.69Zm-9-2a20.51,20.51,0,0,0-5.2-1.28,31.08,31.08,0,0,1,3.82-1.59,25.68,25.68,0,0,1,5.16,2A32.32,32.32,0,0,0,273.65,124.64Z" style="opacity:0.1"></path><path d="M204.13,168.55c.2-.09.05-.35-.14-.32a9,9,0,0,0-2.41.79,26.06,26.06,0,0,1,1-2.68.22.22,0,0,0-.37-.22,13,13,0,0,0-1.44,3.33,13.19,13.19,0,0,0-3.08,2.51,23.32,23.32,0,0,1,.73-5.08.2.2,0,0,0-.38-.11,13.61,13.61,0,0,0-.92,5.87,14.83,14.83,0,0,0-2,3.16c0,.09.08.17.13.08a13.88,13.88,0,0,1,1.93-2.66,17.77,17.77,0,0,0,.45,2.59c-.38.35-.75.7-1.08,1.05-.1.09.05.24.15.15.33-.31.68-.58,1-.86a17.35,17.35,0,0,0,.9,2.5c0,.09.19,0,.16-.07a17.39,17.39,0,0,1-.77-2.67,19.35,19.35,0,0,1,2.19-1.51l.14-.06a19,19,0,0,0,.34,2.55c0,.1.18.05.16,0a15.19,15.19,0,0,1-.12-2.69c1-.51,2-.93,3-1.47.19-.11.05-.36-.14-.33a9.35,9.35,0,0,0-2.86,1.12,18.84,18.84,0,0,1,.58-3.49C202.19,169.48,203.13,169,204.13,168.55Zm-6.21,7a16.83,16.83,0,0,1-.27-2.82,16.1,16.1,0,0,1,2.87-2.25,14.43,14.43,0,0,0-.24,3.29A16.58,16.58,0,0,0,197.92,175.53Z" style="opacity:0.1"></path><path d="M226,143.41c-10.44,7.11-15.61,16.37-15,26.7s-7.11,18.56-8,29.82,5.74,19.24,5.74,24.38-5.08,14.21-5.08,14.21,11.08,14.47,41.56,14,44.84-10.81,44.84-10.81-4.41-9.61-4.86-12.49,6.24-13.42,6.43-22.45-7.92-21.21-7.94-25.69.94-29.95-18.42-39.32A40.9,40.9,0,0,0,226,143.41Z" style="fill:#263238"></path><path d="M214.28,175.17c.2-.45-.33-1-.68-.56A68.32,68.32,0,0,0,201.46,198c-2.35,8.09-.17,15.83,3.68,22.9.11.2.39,0,.29-.18-4.16-8.28-5-16.36-1.5-25.1C206.8,188.4,211.05,182.11,214.28,175.17Z" style="fill:#263238"></path><path d="M293.09,206.6c-1.38-8.43-6.58-16.77-10.41-24.1a.38.38,0,0,0-.68.31c2.37,7.06,6.38,13.43,8.55,20.55a32.25,32.25,0,0,1-1.95,23.45c-.11.23.19.42.32.2A30,30,0,0,0,293.09,206.6Z" style="fill:#263238"></path><path d="M291.57,197c-3.92-6.8-7.85-14.15-9.34-22.1,0-.18-.28-.09-.25.09a62.45,62.45,0,0,0,6.22,18.47c3.46,6.59,8.63,12.71,9.21,20.58a.14.14,0,1,0,.27,0C298.1,207.41,294.68,202.4,291.57,197Z" style="fill:#263238"></path><path d="M211.76,247.36c-33.58,39.08-73.69,119.18-64.15,134.21,10.62,16.73,59.09-38.93,57.35-41.39-1.48-2.08,13.78-49.85,24.85-84.78S220.07,237.7,211.76,247.36Z" style="fill:#d3766a"></path><path d="M211.76,247.36c-33.58,39.08-73.69,119.18-64.15,134.21,10.62,16.73,59.09-38.93,57.35-41.39-1.48-2.08,13.78-49.85,24.85-84.78S220.07,237.7,211.76,247.36Z" style="fill:#455a64"></path><path d="M179.68,377.35,185.52,340s-13.78-24.06-5.78-41.33c4-8.74,31.71-51.48,46.61-62.3,14-10.15,35.33-.17,41.84,8.66,18.73,25.39,28.43,49.48,38.89,132.35Z" style="fill:#455a64"></path><path d="M257.63,236.62a23.25,23.25,0,0,0-1.65,3,19,19,0,0,0-1.53,5.09,18.84,18.84,0,0,0,2.79-4.52,25.24,25.24,0,0,0,1.15-3.19Zm-19.35,68.92a18.49,18.49,0,0,0-1.54,5.08,18.53,18.53,0,0,0,2.79-4.52,18.89,18.89,0,0,0,1.53-5.09A18.66,18.66,0,0,0,238.28,305.54Zm-16.81,69.89c-.27.63-.53,1.27-.76,1.92h1.35c.24-.45.46-.9.67-1.36a18.78,18.78,0,0,0,1.53-5.09A19.09,19.09,0,0,0,221.47,375.43Zm70.67-81.09c0,.05,0,.09,0,.14l0-.05A.29.29,0,0,0,292.14,294.34Zm-34,71.84a18.89,18.89,0,0,0-1.53,5.09,20.41,20.41,0,0,0,4.32-9.61A18.84,18.84,0,0,0,258.14,366.18Zm-71.67-33.29a18.82,18.82,0,0,0-1.53,5.08,20.41,20.41,0,0,0,4.32-9.61A19.09,19.09,0,0,0,186.47,332.89ZM210,281.09a18.45,18.45,0,0,0-1.54,5.09,18.28,18.28,0,0,0,2.79-4.53,18.47,18.47,0,0,0,1.53-5.08A18.8,18.8,0,0,0,210,281.09Zm63.49-19.33a18.82,18.82,0,0,0-5.08-1.53,18.53,18.53,0,0,0,4.52,2.79,18.89,18.89,0,0,0,5.09,1.53A19.09,19.09,0,0,0,273.48,261.76Zm14.89,58a18.13,18.13,0,0,0-5.08-1.53,18.49,18.49,0,0,0,4.52,2.78,18.9,18.9,0,0,0,5.09,1.54A18.77,18.77,0,0,0,288.37,319.8Zm-82.19-61.38-.45.6a13.94,13.94,0,0,0,1.59.3Q206.77,258.84,206.18,258.42Zm15.15,72a18.43,18.43,0,0,0-5.09-1.53,18.73,18.73,0,0,0,4.53,2.78,18.45,18.45,0,0,0,5.09,1.54A19.09,19.09,0,0,0,221.33,330.38Zm17.28-59.74a18.63,18.63,0,0,0-2.52-4.68,20.59,20.59,0,0,0,3.74,9.85A18.51,18.51,0,0,0,238.61,270.64Zm23.64,59.91a18.28,18.28,0,0,0-2.51-4.68,20.59,20.59,0,0,0,3.74,9.85A18.26,18.26,0,0,0,262.25,330.55Zm-78.53-39.09c-.23.4-.47.8-.7,1.18a13.36,13.36,0,0,0,1.27,2A14.75,14.75,0,0,0,183.72,291.46Zm15.76,64.08a18.63,18.63,0,0,0-2.52-4.68,19,19,0,0,0,1.23,5.17,18.63,18.63,0,0,0,2.52,4.68A18.6,18.6,0,0,0,199.48,355.54ZM225.27,246a18.92,18.92,0,0,0-4.68,2.51,18.69,18.69,0,0,0,5.17-1.23,18.28,18.28,0,0,0,4.68-2.51A18.52,18.52,0,0,0,225.27,246Zm59.21,104.26a18.92,18.92,0,0,0-4.68,2.51A18.6,18.6,0,0,0,285,351.5a18.28,18.28,0,0,0,4.68-2.51A18.6,18.6,0,0,0,284.48,350.22ZM202.81,309a18.92,18.92,0,0,0-4.68,2.51,19,19,0,0,0,5.17-1.22,18.63,18.63,0,0,0,4.68-2.52A18.6,18.6,0,0,0,202.81,309Zm33,42.38a18.92,18.92,0,0,0-4.68,2.51,20.59,20.59,0,0,0,9.85-3.74A18.6,18.6,0,0,0,235.85,351.35Zm-55.43,21.29-.25,1.55.09,0a18.92,18.92,0,0,0,4.68-2.51A17.44,17.44,0,0,0,180.42,372.64Zm85.25-82.32a18.63,18.63,0,0,0-4.68,2.52,20.59,20.59,0,0,0,9.85-3.74A18.59,18.59,0,0,0,265.67,290.32Z" style="fill:#37474f"></path><path d="M202,263.2Q197.77,269,193.73,275c.74-1.55,1.48-3.09,2.2-4.64a.1.1,0,0,0-.17-.09c-1,1.94-1.92,3.91-2.82,5.89q-5.41,8-10.49,16.24a42.59,42.59,0,0,0-3.72,7.27,32.49,32.49,0,0,0-1.83,7.73,41.19,41.19,0,0,0-.12,7.93,55.3,55.3,0,0,0,1.15,8.09,51.77,51.77,0,0,0,2.85,8.84c.6,1.39,1.23,2.77,1.92,4.13s1.91,3.75,1.89,3.85c-.26,1.39-.52,2.37-.69,3.54l-.54,3.59q-.54,3.58-1.06,7.18c-.7,4.75-1.3,9.5-1.89,14.26-.34,2.74-.52,5.5-.9,8.22,0,.11.15.16.17,0,.39-2.37,1-4.72,1.41-7.08s.87-4.75,1.32-7.12c.9-4.79,1.6-9.62,2.35-14.43.21-1.34.42-2.67.62-4a25.6,25.6,0,0,0,.51-4.44s-4.26-8.77-5.92-14.91a52.45,52.45,0,0,1-1.7-7.92,41.49,41.49,0,0,1-.09-7.88,34.37,34.37,0,0,1,1.51-7.72A40,40,0,0,1,183,294.2c2.78-4.95,5.74-9.8,8.74-14.62,3.41-5.47,6.85-10.91,10.37-16.3C202.21,263.19,202.07,263.11,202,263.2Z" style="fill:#263238"></path><path d="M228.39,335.3a118.91,118.91,0,0,0-17.74,2.18c-2.9.61-5.75,1.36-8.61,2.17-1.42.41-2.84.76-4.28,1.11a18.64,18.64,0,0,1-4.58.67.11.11,0,0,0,0,.22,32,32,0,0,0,4.38.09,31.49,31.49,0,0,0,4.2-.61c2.94-.6,5.86-1.34,8.81-2,5.93-1.27,11.86-2.54,17.88-3.38C228.72,335.75,228.67,335.28,228.39,335.3Z" style="fill:#263238"></path><path d="M242.85,341.16a129.24,129.24,0,0,0-14.7-1.31c-2.46-.07-4.91,0-7.37.13-1.17.07-2.34.16-3.51.26s-2.57.39-3.86.48c-.13,0-.14.22,0,.22,1.22-.05,2.45.1,3.67.12l3.68.05c2.45,0,4.9.11,7.36.13,4.91,0,9.81.12,14.72.32C243.1,341.57,243.1,341.19,242.85,341.16Z" style="fill:#263238"></path><path d="M148.4,383.23c10.17,9.93,32.37,8,88.72,8.32,7.8.05,22.93-54.89,14.61-55.37-10.49-.6-51.31-.67-54.29-.29C172.25,339,141.5,376.5,148.4,383.23Z" style="fill:#d3766a"></path><path d="M232.83,337.29s21.8-6.44,34.29-6.28c16.74.22,31.1,7.29,36.94,10.62,12.19,6.95,36.86,32.18,30.84,40.55-5.46,7.58-29.37-19.48-29.37-19.48s28.93,23.57,20.68,31.49S292,369.11,292,369.11s29.18,24.88,19.39,31.7c-7.41,5.16-32.61-23.4-32.61-23.4S303.71,399,296.33,404.6c-8.16,6.22-33.08-18.68-33.08-18.68-21.18,11.14-36.08,6.89-46.21,3.26C214.59,388.3,232.83,337.29,232.83,337.29Z" style="fill:#d3766a"></path><path d="M296,353.91c3.5,2.64,7.06,5.3,10.31,8.25s6.41,6,9.37,9.24c7.27,7.94,10.57,14.05,10.33,13.7-5.81-8.4-17.28-19.13-20.54-22.08s-6.34-6-9.58-9C295.84,354,296,353.84,296,353.91Z" style="fill:#263238"></path><path d="M285.19,365.46c4.32,3.57,8.74,7,12.9,10.72s7.75,7.66,11.63,11.68c.3.31,0,.37-.28.07-4-3.86-8.06-7.12-12.14-10.94s-8-7.79-12.21-11.44C285,365.5,285.12,365.4,285.19,365.46Z" style="fill:#263238"></path><path d="M274.09,373.69c6.88,5.12,12.81,11.51,18.48,17.91.28.32-.07.35-.38,0-6-6.07-10.72-10.88-18.28-17.72C273.79,373.83,273.94,373.58,274.09,373.69Z" style="fill:#263238"></path><path d="M258.77,330.8l-38.88,62.71s-62.76,4.15-72.14-11.25,34.68-45.72,49.6-46.45S258.77,330.8,258.77,330.8Z" style="fill:#455a64"></path><path d="M179.77,372.87a18.63,18.63,0,0,0-4.68,2.52,20.59,20.59,0,0,0,9.85-3.74A18.59,18.59,0,0,0,179.77,372.87Zm56.08-21.52a18.92,18.92,0,0,0-4.68,2.51,20.59,20.59,0,0,0,9.85-3.74A18.6,18.6,0,0,0,235.85,351.35Zm-36.37,4.19a18.63,18.63,0,0,0-2.52-4.68,19,19,0,0,0,1.23,5.17,18.63,18.63,0,0,0,2.52,4.68A18.6,18.6,0,0,0,199.48,355.54Zm-34.89-1.92c-.1-.26-.21-.51-.32-.76-.37.29-.73.59-1.09.89l.12.35a18.69,18.69,0,0,0,2.52,4.69A18.52,18.52,0,0,0,164.59,353.62Zm34.49,37.31a18.66,18.66,0,0,0-5.09-1.54,18.53,18.53,0,0,0,4.52,2.79,19,19,0,0,0,5.09,1.53A18.49,18.49,0,0,0,199.08,390.93Zm-44-9.68a18.45,18.45,0,0,0-5.09-1.54,18.28,18.28,0,0,0,4.53,2.79,18.47,18.47,0,0,0,5.08,1.53A18.8,18.8,0,0,0,155.13,381.25Zm66.34-5.82a18.78,18.78,0,0,0-1.53,5.09,20.51,20.51,0,0,0,4.32-9.62A19.09,19.09,0,0,0,221.47,375.43Z" style="fill:#37474f"></path><path d="M174.37,346.17c3.24-2.93,12.6-10.11,23-10.36.11,0,.14.16,0,.18-8.35,1.4-19.53,7.73-22.9,10.31A.09.09,0,0,1,174.37,346.17Z" style="fill:#263238"></path><path d="M209,385.57c15.31-21.38,28.15-46.18,30.69-50.34.12-.2-.21-.37-.32-.16-2.28,4.21-20,30.95-30.72,50.32C208.52,385.61,208.85,385.77,209,385.57Z" style="fill:#263238"></path><path d="M254.68,236.76c-.8,2.33-16.63,19.42-27.13,16.06-7.38-2.37,1-18.61,1-18.61l-2.58-22,28.72-14.32S255,235.78,254.68,236.76Z" style="fill:#d3766a"></path><path d="M254.75,212.05A42.14,42.14,0,0,1,228.4,233L226,212.23l28.73-14.32S254.72,204.3,254.75,212.05Z" style="fill:#263238"></path><path d="M205.44,172.56c-12.49,34,6.49,45.35,13.83,48,6.66,2.44,29.67,9.89,45.6-22.67s4.05-49.13-10.9-55.5S217.92,138.53,205.44,172.56Z" style="fill:#d3766a"></path><path d="M216.19,167.83a22.83,22.83,0,0,1,2.48-.38,4.06,4.06,0,0,1,2.6.1,1.29,1.29,0,0,1,.55,1.47,3.2,3.2,0,0,1-2.69,1.81,4.66,4.66,0,0,1-3.35-.52A1.38,1.38,0,0,1,216.19,167.83Z" style="fill:#263238"></path><path d="M242.27,171.41a22.09,22.09,0,0,1-2.2-1.18,4.05,4.05,0,0,1-2-1.64,1.28,1.28,0,0,1,.44-1.51,3.2,3.2,0,0,1,3.24.17,4.72,4.72,0,0,1,2.36,2.42A1.38,1.38,0,0,1,242.27,171.41Z" style="fill:#263238"></path><path d="M234.72,178.74c0-.08.15.17.11.27-.82,2.33-1.37,5.13.5,6.59.06.05,0,.16-.06.13C232.79,184.53,233.56,180.82,234.72,178.74Z" style="fill:#263238"></path><path d="M237.6,177c3.88.92,1.75,8.6-1.84,7.75S234.35,176.19,237.6,177Z" style="fill:#263238"></path><path d="M239,177.78c.55.62,1,1.57,1.78,1.87s1.84-.26,2.66-.86c.09-.06.14,0,.11.12-.38,1.48-1.37,2.84-3,2.62-1.49-.2-2.16-1.79-2.12-3.37C238.43,177.87,238.78,177.53,239,177.78Z" style="fill:#263238"></path><path d="M220.32,174.75c0-.1-.22.06-.24.16-.57,2.4-1.62,5.06-4,5.27-.07,0-.09.13,0,.14C218.81,180.66,220.17,177.11,220.32,174.75Z" style="fill:#263238"></path><path d="M218.86,171.68c-3.76-1.32-6.12,6.3-2.64,7.52S222,172.79,218.86,171.68Z" style="fill:#263238"></path><path d="M217.11,171.69c-.72.22-1.55.77-2.28.59s-1.21-1.22-1.5-2.17c0-.1-.11-.05-.14,0-.49,1.45-.48,3.11.83,3.83s2.52-.31,3.32-1.65C217.48,172.08,217.41,171.6,217.11,171.69Z" style="fill:#263238"></path><path d="M227.36,197.56c-.71.43-1.46,1.07-2.35.95a6.45,6.45,0,0,1-2.45-1.2.09.09,0,0,0-.13.1,3.31,3.31,0,0,0,2.75,2,2.63,2.63,0,0,0,2.38-1.7C227.63,197.59,227.46,197.49,227.36,197.56Z" style="fill:#263238"></path><path d="M219.92,186.12s-1.7,3.74-2.18,5.42a63.5,63.5,0,0,0,9.69,2.41c.2,0,.37-.74.19-.79-4.67-1.45-5.57-1.75-8.2-2.46,0-.5,2.79-5.74,2.53-5.84a15,15,0,0,0-4-.23c2.95-7.18,7-13.82,9.85-21,.1-.26-.26-.45-.4-.24-4.76,6.67-8.34,14.85-11.57,22.18C215.37,186.47,219.17,186.21,219.92,186.12Z" style="fill:#263238"></path><path d="M264.65,194.22c-8.54-2.36-4.72-29.41-4.22-32.73-.42,2.07-2.72,13-3.66,13.28a8.57,8.57,0,0,1-2.58-1.16h0a26.8,26.8,0,0,0,.62-4c.07-.62-.54,1.26-1.43,3.53-.46-.25-1-.54-1.49-.82a32,32,0,0,0,1.16-8.48c0-1.09-1.39,3.48-3.34,7.29-5.56-3-13.63-7.18-21.59-9.36-2.12-.59-4-1-5.64-1.32.75-3.22,1.94-6.56,1.53-5.88a32.56,32.56,0,0,0-2.77,5.66c-.9-.16-1.74-.3-2.49-.4.86-4.6,4.75-11.33,3.76-10.39a33,33,0,0,0-7.06,10.13,13,13,0,0,1-4.13-.56c.19-1.49,2.93-10.35,14.09-18.77,13.69-10.33,38.29-6.94,46.66,11.56,0,0,8.41,8.88,7.48,19.73S269.58,195.58,264.65,194.22Z" style="fill:#263238"></path><path d="M259,196.1s10.6-8.85,14.81-4.78-5.82,18.34-12.22,18.92a6.13,6.13,0,0,1-7.06-5.33Z" style="fill:#d3766a"></path><path d="M270.83,195.34c.09,0,.07.15,0,.16-4.52.55-7.7,3.75-10.26,7.26,1.62-1.18,3.49-1.56,5.12.43.09.11-.06.25-.16.19a3.78,3.78,0,0,0-4.35.18,19,19,0,0,0-2.8,2.72c-.29.32-.9-.06-.64-.44a.24.24,0,0,1,.06-.08C259.08,200.53,265.1,194.35,270.83,195.34Z" style="fill:#263238"></path><path d="M226,139.87a38.64,38.64,0,0,1,29.38,1.23c11.78,5.39,24.48,14.49,28.65,36.82,0,0,5.3-24.88-12.56-37.4C249,124.8,230.75,134.81,226,139.87Z" style="fill:#FFC727"></path><path d="M198.79,217.45s4.8-9,11.38-4.66.22,12.29.22,12.29Z" style="fill:#ff9cbd"></path><rect x="178.21" y="215.04" width="13.88" height="71.56" transform="translate(168.32 -60.48) rotate(33.34)" style="fill:#FFC727"></rect><rect x="196.14" y="220.37" width="16.21" height="2.84" transform="translate(155.52 -75.75) rotate(33.34)" style="fill:#37474f"></rect><rect x="194.41" y="223" width="16.21" height="2.84" transform="translate(156.67 -74.37) rotate(33.34)" style="fill:#37474f"></rect><path d="M171.29,284.53,162.07,289l-3,1.49.15-3.39.49-10.25,2.15-.72s.16,2.21.17,2.25l2.16-.72s.16,2.2.17,2.24l2.12-.73s.19,2.22.2,2.26l2.13-.73S169,283,169,283l2.13-.73S171.28,284.49,171.29,284.53Z" style="fill:#ebebeb"></path><polygon points="162.07 289.04 159.04 290.53 159.19 287.14 162.07 289.04" style="fill:#37474f"></polygon><g style="opacity:0.1"><path d="M164.73,274.25c2.51-4.09,5.08-8.14,7.67-12.18L180.23,250l8-12c2.69-4,5.39-7.94,8.15-11.86-2.5,4.09-5.08,8.14-7.66,12.18l-7.84,12.07-8,12C170.19,266.36,167.5,270.33,164.73,274.25Z"></path><path d="M168.21,276.57c2.51-4.1,5.08-8.14,7.67-12.18l7.83-12.07,8-12c2.69-4,5.39-7.94,8.15-11.86-2.5,4.09-5.08,8.13-7.66,12.17l-7.84,12.07-8,12C173.67,268.68,171,272.64,168.21,276.57Z"></path><path d="M171.69,278.88c2.51-4.09,5.09-8.14,7.67-12.18l7.84-12.06,8-12c2.68-4,5.38-7.94,8.14-11.86-2.5,4.1-5.08,8.14-7.66,12.18l-7.84,12.07-8,12C177.15,271,174.46,275,171.69,278.88Z"></path></g><path d="M277.24,262.86c11.82,28.53,29.77,88.27,16.33,107.08-12.95,18.13-86.84-22.62-101.83-31-6.15-3.42,10.24-56.15,17.21-53.33,15.32,6.21,46.55,27.6,47.38,27.21s-.3-24.52-.48-48.32C255.59,229.91,268.75,242.35,277.24,262.86Z" style="fill:#d3766a"></path><path d="M165.24,252.45c-5.1,4.28-.59,9.48-.59,9.48a12.46,12.46,0,0,0-8,2.64c-3.88,3.35-.33,10.9-.33,10.9a15.34,15.34,0,0,0-8,4.14c-3.39,3.57-.9,11.7-.9,11.7a13.5,13.5,0,0,0-4.77,8.09c-1.17,8.56,8.9,17.08,15.34,22.45,9.57,8,29.59,14.88,33.83,17.12L227,298.29s-22-32-30.11-37.86C188.63,254.48,170.26,248.24,165.24,252.45Z" style="fill:#d3766a"></path><path d="M165.5,261.52c8.68,3,16,8.33,23.64,13.27.17.11,0,.38-.18.27-7.52-5-16-8.45-23.65-13.15A.22.22,0,0,1,165.5,261.52Z" style="fill:#263238"></path><path d="M156.87,275.05a24.15,24.15,0,0,1,5.31,3.3q2.7,1.95,5.32,4,5.28,4.08,10.33,8.4c.15.13,0,.39-.17.27-3.51-2.7-7-5.35-10.67-7.9q-2.72-1.91-5.45-3.78a28.77,28.77,0,0,1-5-3.76A.32.32,0,0,1,156.87,275.05Z" style="fill:#263238"></path><path d="M147.5,291.42c1.71.57,3.23,2.11,4.62,3.23q2.35,1.91,4.74,3.79c3.18,2.5,6.35,5,9.61,7.39.17.12,0,.38-.17.26-3.33-2.41-6.68-4.78-10-7.22-1.62-1.2-3.24-2.41-4.84-3.62-1.37-1-3.2-2.18-4.11-3.67C147.31,291.5,147.41,291.4,147.5,291.42Z" style="fill:#263238"></path><path d="M227.33,293,199,347.55s63.58,30.29,86,27.29,12-45.77,10.64-55.41c-1-6.89-12.72-48.55-21.88-65.49s-17.25-17.23-18.51,5.84.62,51.1-.31,50.68S227.33,293,227.33,293Z" style="fill:#455a64"></path><path d="M265.67,290.32a18.63,18.63,0,0,0-4.68,2.52,20.59,20.59,0,0,0,9.85-3.74A18.59,18.59,0,0,0,265.67,290.32Zm-29.82,61a18.92,18.92,0,0,0-4.68,2.51,20.59,20.59,0,0,0,9.85-3.74A18.6,18.6,0,0,0,235.85,351.35Zm48.63-1.13a18.92,18.92,0,0,0-4.68,2.51A18.6,18.6,0,0,0,285,351.5a18.28,18.28,0,0,0,4.68-2.51A18.6,18.6,0,0,0,284.48,350.22Zm-22.23-19.67a18.28,18.28,0,0,0-2.51-4.68,20.59,20.59,0,0,0,3.74,9.85A18.26,18.26,0,0,0,262.25,330.55Zm-40.92-.17a18.43,18.43,0,0,0-5.09-1.53,18.73,18.73,0,0,0,4.53,2.78,18.45,18.45,0,0,0,5.09,1.54A19.09,19.09,0,0,0,221.33,330.38Zm67-10.58a18.13,18.13,0,0,0-5.08-1.53,18.49,18.49,0,0,0,4.52,2.78,18.9,18.9,0,0,0,5.09,1.54A18.77,18.77,0,0,0,288.37,319.8Zm-14.89-58a18.82,18.82,0,0,0-5.08-1.53,18.53,18.53,0,0,0,4.52,2.79,18.89,18.89,0,0,0,5.09,1.53A19.09,19.09,0,0,0,273.48,261.76ZM258.14,366.18a20.94,20.94,0,0,0-1.38,4.16l.48.14a20.53,20.53,0,0,0,2.16-3.73,19,19,0,0,0,1.53-5.09A18.84,18.84,0,0,0,258.14,366.18Zm-17.5-64.66a19.61,19.61,0,0,0-2.36,4,18.49,18.49,0,0,0-1.54,5.08,18.53,18.53,0,0,0,2.79-4.52,20.4,20.4,0,0,0,1.42-4.38h0Z" style="fill:#37474f"></path><path d="M255,309.7a63.18,63.18,0,0,1,7.3,9.66A112.78,112.78,0,0,1,268,329.54c0,.08-.16.12-.21,0-2-3.34-4.41-6.6-6.62-9.89s-4.78-6.47-6.77-9.81C254.27,309.66,254.83,309.51,255,309.7Z" style="fill:#263238"></path><path d="M286.49,286.52c1.67,6.87,8.28,30.61,9.45,37.57a154.36,154.36,0,0,1,2.43,21,71.34,71.34,0,0,1-.42,10.44,34.79,34.79,0,0,1-2.46,10,13.47,13.47,0,0,1-6.61,7.06A21,21,0,0,1,279,374c-6.89-.39-13.69-2.38-20.41-4.42s-13.36-4.48-20-6.88-13.24-4.89-19.82-7.47-13.17-5.13-19.71-7.79l.05.17,1.76-3.64-2,3.53-.06.11.12.05c6.42,3,12.87,5.87,19.37,8.64s13.06,5.45,19.65,8,13.27,4.95,20,7.13,13.62,4.27,20.89,4.66a23.1,23.1,0,0,0,10.86-1.77,14.08,14.08,0,0,0,4.53-3.38,17.54,17.54,0,0,0,3-4.73,37,37,0,0,0,2.52-10.55A64.11,64.11,0,0,0,300,345C298.35,321.39,290.59,300.05,286.49,286.52Z" style="fill:#263238"></path><path d="M254.8,273.33c-.12,2.91-.14,5.81-.22,8.72l-.08,8.71c-.08,5.81,0,11.63-.13,17.4l-.05,1.07,0,.51,0,.24v.08h0v0l.06-.12a.71.71,0,0,1,.4-.29l.11,0a.46.46,0,0,1,.2,0l.09,0s0,0,0,0l-.05,0-.19-.1-.46-.24-.93-.53c-1.24-.73-2.48-1.49-3.71-2.25l-7.44-4.53-7.45-4.51L227.37,293l-.07,0,0,.07-.54,1.2.67-1.13-.11,0c2.37,1.7,4.74,3.38,7.14,5l7.22,4.88c2.42,1.62,4.86,3.18,7.31,4.76,1.24.77,2.47,1.54,3.73,2.29l.95.56.51.27a1.57,1.57,0,0,0,.29.14l.07,0,.06,0,.15.05a1.22,1.22,0,0,0,.33,0l.18,0a1,1,0,0,0,.44-.35l.08-.14v0l0-.09a.66.66,0,0,0,0-.13l0-.19,0-.3,0-.58,0-1.11c.09-5.84,0-11.64-.25-17.45l-.37-8.72C255.17,279.13,255,276.23,254.8,273.33Z" style="fill:#263238"></path><path d="M223.38,331.82c3.21-6.27,6.38-12.57,9.84-18.73,2-3.49,3.9-7,5.9-10.48.08-.13.31,0,.25.12-3,6.42-6,12.85-9.26,19.14s-6.46,12.54-9.8,18.75c-1.9,3.54-3.9,7-6,10.42,0,.06-.16,0-.13-.07C216.92,344.45,220.13,338.14,223.38,331.82Z" style="fill:#263238"></path><path d="M252.52,280.18a50.57,50.57,0,0,0,2.39,10,43.3,43.3,0,0,0-.93-5.06A45.74,45.74,0,0,0,252.52,280.18Z" style="fill:#263238"></path><path d="M221.76,238s-1.54,16.56,8.05,17.41,24.31-12.5,30.25-17.41a30.49,30.49,0,0,0-21.16-6.57C227.58,232.06,221.76,238,221.76,238Z" style="fill:#d3766a"></path></g><g id="freepik--Device--inject-97"><rect x="157.29" y="403.97" width="112.38" height="5.04" style="fill:#a6a6a6"></rect><rect x="213.1" y="403.97" width="56.56" height="5.04" style="fill:#c7c7c7"></rect><polygon points="204.01 409 94.49 409 79.01 334.62 188.54 334.62 204.01 409" style="fill:#c7c7c7"></polygon><path d="M150,373.47a6.45,6.45,0,0,1-6.53,7.3,8.32,8.32,0,0,1-8.07-7.3,6.45,6.45,0,0,1,6.54-7.3A8.3,8.3,0,0,1,150,373.47Z" style="fill:#fff"></path></g><g id="freepik--speech-bubbles--inject-97"><path d="M53.94,296a21.95,21.95,0,0,0,27.5,28l9.29,6-1-10.92A21.95,21.95,0,1,0,53.94,296Z" style="fill:#FFC727"></path><rect x="73.21" y="293.37" width="2.98" height="20.05" transform="translate(-192.65 141.68) rotate(-45)" style="fill:#fff"></rect><rect x="73.21" y="293.37" width="2.98" height="20.05" transform="translate(236.41 36.04) rotate(45)" style="fill:#fff"></rect><path d="M146.26,111.63a28.77,28.77,0,0,0,46.4,22.16l14.17,3.31-6.14-13a28.5,28.5,0,0,0,3.13-13.64,28.79,28.79,0,1,0-57.56,1.18Z" style="fill:#fff"></path><path d="M146.26,111.63a28.91,28.91,0,0,0,4.65,15,30.42,30.42,0,0,0,2.36,3.18,30.93,30.93,0,0,0,2.82,2.79,27.23,27.23,0,0,0,3.14,2.41c.54.38,1.14.67,1.7,1l.86.49c.29.16.6.28.9.42a28.43,28.43,0,0,0,7.52,2.34,27.31,27.31,0,0,0,3.93.34,24.69,24.69,0,0,0,3.94-.14,28.41,28.41,0,0,0,14.36-5.92l.13-.1.17,0,14.19,3.23-.5.61-6.17-13-.1-.21.1-.21a28.77,28.77,0,0,0,3.08-12.37A28.4,28.4,0,0,0,200.7,99a29.56,29.56,0,0,0-7.82-10.1,28.27,28.27,0,0,0-11.48-5.67,28.78,28.78,0,0,0-12.86-.1,29.19,29.19,0,0,0-11.61,5.62A28.84,28.84,0,0,0,146.26,111.63Zm0,0a28.91,28.91,0,0,1,10.58-23,28.68,28.68,0,0,1,24.68-5.93,28.84,28.84,0,0,1,11.83,5.62,29.38,29.38,0,0,1,8.15,10.31,29,29,0,0,1-.38,25.64v-.42l6.1,13,.39.82-.89-.21-14.15-3.39.3-.07a29,29,0,0,1-14.75,5.83,25.45,25.45,0,0,1-4,.08,28,28,0,0,1-4-.4,29.15,29.15,0,0,1-7.56-2.48,28,28,0,0,1-6.6-4.43,31.05,31.05,0,0,1-2.81-2.81,30.7,30.7,0,0,1-2.35-3.21A28.9,28.9,0,0,1,146.26,111.63Z" style="fill:#263238"></path><path d="M170.06,116.1a9.13,9.13,0,0,1,.64-3.52,5.86,5.86,0,0,1,2.64-2.72c.4-.24.9-.52,1.48-.82a12.88,12.88,0,0,0,1.73-1.1,6.51,6.51,0,0,0,1.42-1.5,3.55,3.55,0,0,0,.58-2,3.32,3.32,0,0,0-.32-1.48,3.74,3.74,0,0,0-.84-1.08,3.69,3.69,0,0,0-1.22-.66,4.69,4.69,0,0,0-1.43-.22,4.15,4.15,0,0,0-1.6.3,5.76,5.76,0,0,0-1.3.76,7.3,7.3,0,0,0-1,1,11.49,11.49,0,0,0-.78,1.1l-3.48-2.4a7.79,7.79,0,0,1,1.38-2.2,8.46,8.46,0,0,1,2-1.62,9.3,9.3,0,0,1,2.38-1,10.17,10.17,0,0,1,2.64-.34,10.3,10.3,0,0,1,3,.44,7.64,7.64,0,0,1,2.66,1.4,7.17,7.17,0,0,1,1.92,2.46,8.08,8.08,0,0,1,.74,3.58,7.8,7.8,0,0,1-.3,2.27,6.52,6.52,0,0,1-.86,1.78,7.48,7.48,0,0,1-1.32,1.44,16.25,16.25,0,0,1-1.72,1.24c-.54.32-1.07.63-1.6.92a9.07,9.07,0,0,0-1.46,1,4.75,4.75,0,0,0-1.09,1.24,3.27,3.27,0,0,0-.42,1.7Zm.08,9.33V119.9h4.44v5.53Z" style="fill:#FFC727"></path></g></svg>